# Blender v3.0.1 OBJ File: ''
# www.blender.org
mtllib Sign.mtl
o Plane
v 1.228333 0.000000 0.986667
v 0.000000 0.000000 2.140000
v 0.826667 0.000000 1.496667
v 0.405000 0.000000 1.876667
v 1.555000 0.000000 0.416667
v 1.741167 0.000000 -0.039000
v 1.787000 0.000000 -0.234000
v 1.646333 0.000000 -0.293333
v 1.515500 0.000000 -0.369000
v 1.409334 0.000000 -0.463000
v 1.329000 0.000000 -0.572000
v 1.277167 0.000000 -0.707833
v 1.240000 0.000000 -0.868000
v 1.214000 0.000000 -1.053000
v 0.000000 0.000000 -1.053000
v -1.228333 0.000000 0.986667
v -0.826667 0.000000 1.496667
v -0.405000 0.000000 1.876667
v -1.555000 0.000000 0.416667
v -1.741167 0.000000 -0.039000
v -1.787000 0.000000 -0.234000
v -1.646334 0.000000 -0.293333
v -1.515500 0.000000 -0.369000
v -1.409333 0.000000 -0.463000
v -1.332334 0.000000 -0.575167
v -1.277167 0.000000 -0.707833
v -1.240000 0.000000 -0.868000
v -1.214000 0.000000 -1.053000
v 1.228333 0.200000 0.986667
v 0.000000 0.200000 2.140000
v 0.826667 0.200000 1.496667
v 0.405000 0.200000 1.876667
v 1.555000 0.200000 0.416667
v 1.741167 0.200000 -0.039000
v 1.787000 0.200000 -0.234000
v 1.646334 0.200000 -0.293333
v 1.515500 0.200000 -0.369000
v 1.409333 0.200000 -0.463000
v 1.329000 0.200000 -0.572000
v 1.277167 0.200000 -0.707833
v 1.240000 0.200000 -0.868000
v 1.214000 0.200000 -1.053000
v 0.000000 0.200000 -1.053000
v -1.228333 0.200000 0.986667
v -0.826667 0.200000 1.496667
v -0.405000 0.200000 1.876667
v -1.555000 0.200000 0.416667
v -1.741167 0.200000 -0.039000
v -1.787000 0.200000 -0.234000
v -1.646333 0.200000 -0.293333
v -1.515500 0.200000 -0.369000
v -1.409334 0.200000 -0.463000
v -1.332333 0.200000 -0.575167
v -1.277167 0.200000 -0.707833
v -1.240000 0.200000 -0.868000
v -1.214000 0.200000 -1.053000
v 1.405417 0.000000 0.700417
v 1.033125 0.000000 1.255417
v 0.200625 0.000000 2.017084
v 0.615208 0.000000 1.704167
v 1.668271 0.000000 0.159708
v 1.774896 0.000000 -0.159375
v 1.716167 0.000000 -0.262417
v 1.578729 0.000000 -0.328792
v 1.458730 0.000000 -0.413750
v 1.367167 0.000000 -0.516375
v 1.301896 0.000000 -0.638104
v 1.256646 0.000000 -0.784229
v 1.226250 0.000000 -0.958625
v 0.607000 0.000000 -1.053000
v -1.405417 0.000000 0.700417
v -1.033125 0.000000 1.255417
v -0.200625 0.000000 2.017084
v -0.615208 0.000000 1.704167
v -1.668271 0.000000 0.159708
v -1.774896 0.000000 -0.159375
v -1.716167 0.000000 -0.262417
v -1.578730 0.000000 -0.328792
v -1.458729 0.000000 -0.413750
v -1.367584 0.000000 -0.516771
v -1.302313 0.000000 -0.638500
v -1.256646 0.000000 -0.784229
v -1.226250 0.000000 -0.958625
v -0.607000 0.000000 -1.053000
v 1.405417 0.200000 0.700417
v 1.033125 0.200000 1.255417
v 0.200625 0.200000 2.017084
v 0.615208 0.200000 1.704167
v 1.668271 0.200000 0.159708
v 1.774896 0.200000 -0.159375
v 1.716167 0.200000 -0.262417
v 1.578730 0.200000 -0.328792
v 1.458729 0.200000 -0.413750
v 1.367167 0.200000 -0.516375
v 1.301896 0.200000 -0.638104
v 1.256646 0.200000 -0.784229
v 1.226250 0.200000 -0.958625
v 0.607000 0.200000 -1.053000
v -1.405417 0.200000 0.700417
v -1.033125 0.200000 1.255417
v -0.200625 0.200000 2.017084
v -0.615208 0.200000 1.704167
v -1.668271 0.200000 0.159708
v -1.774896 0.200000 -0.159375
v -1.716167 0.200000 -0.262417
v -1.578729 0.200000 -0.328792
v -1.458730 0.200000 -0.413750
v -1.367584 0.200000 -0.516771
v -1.302313 0.200000 -0.638500
v -1.256646 0.200000 -0.784229
v -1.226250 0.200000 -0.958625
v -0.607000 0.200000 -1.053000
v -1.228333 0.100000 0.986667
v -0.826667 0.100000 1.496667
v 0.000000 0.100000 2.140000
v 0.405000 0.100000 1.876667
v -0.405000 0.100000 1.876667
v 0.826667 0.100000 1.496667
v 1.555000 0.100000 0.416667
v 1.741167 0.100000 -0.039000
v -1.741167 0.100000 -0.039000
v -1.555000 0.100000 0.416667
v 1.787000 0.100000 -0.234000
v -1.787000 0.100000 -0.234000
v 1.646333 0.100000 -0.293333
v -1.646334 0.100000 -0.293333
v 1.515500 0.100000 -0.369000
v -1.515500 0.100000 -0.369000
v 1.409334 0.100000 -0.463000
v -1.409334 0.100000 -0.463000
v 1.329000 0.100000 -0.572000
v -1.332334 0.100000 -0.575167
v 1.277167 0.100000 -0.707834
v -1.277167 0.100000 -0.707833
v 1.240000 0.100000 -0.868000
v -1.240000 0.100000 -0.868000
v 1.214000 0.100000 -1.053000
v -1.214000 0.100000 -1.053000
v 0.000000 0.100000 -1.053000
v 1.228333 0.100000 0.986667
v -0.000003 0.000000 0.051602
v -0.000003 0.200000 0.051602
v -1.033125 0.100000 1.255417
v 0.200625 0.100000 2.017084
v -0.200625 0.100000 2.017083
v 0.615208 0.100000 1.704167
v -0.615208 0.100000 1.704167
v 1.668271 0.100000 0.159708
v -1.668271 0.100000 0.159708
v 1.774896 0.100000 -0.159375
v -1.774896 0.100000 -0.159375
v 1.716167 0.100000 -0.262417
v -1.716167 0.100000 -0.262417
v 1.578729 0.100000 -0.328792
v -1.578729 0.100000 -0.328792
v 1.458730 0.100000 -0.413750
v -1.458729 0.100000 -0.413750
v 1.367167 0.100000 -0.516375
v -1.367584 0.100000 -0.516771
v 1.301896 0.100000 -0.638104
v -1.302313 0.100000 -0.638500
v 1.256646 0.100000 -0.784229
v -1.256646 0.100000 -0.784229
v 1.226250 0.100000 -0.958625
v -1.226250 0.100000 -0.958625
v 0.607000 0.100000 -1.053000
v 1.405417 0.100000 0.700417
v -0.607000 0.100000 -1.053000
v -1.405417 0.100000 0.700417
v 1.033125 0.100000 1.255417
v 1.228333 0.000000 0.986667
v 1.405417 0.000000 0.700417
v 1.555000 0.000000 0.416667
v 0.826667 0.000000 1.496667
v 1.033125 0.000000 1.255417
v 0.000000 0.000000 2.140000
v 0.000000 0.000000 2.140000
v 0.200625 0.000000 2.017084
v 0.405000 0.000000 1.876667
v 0.615208 0.000000 1.704167
v 1.668271 0.000000 0.159708
v 1.741167 0.000000 -0.039000
v 1.774896 0.000000 -0.159375
v 1.787000 0.000000 -0.234000
v 1.787000 0.000000 -0.234000
v 1.716167 0.000000 -0.262417
v 1.646333 0.000000 -0.293333
v 1.578729 0.000000 -0.328792
v 1.515500 0.000000 -0.369000
v 1.458730 0.000000 -0.413750
v 1.409334 0.000000 -0.463000
v 1.367167 0.000000 -0.516375
v 1.329000 0.000000 -0.572000
v 1.301896 0.000000 -0.638104
v 1.277167 0.000000 -0.707833
v 1.256646 0.000000 -0.784229
v 1.240000 0.000000 -0.868000
v 1.226250 0.000000 -0.958625
v 1.214000 0.000000 -1.053000
v 1.214000 0.000000 -1.053000
v 0.607000 0.000000 -1.053000
v 0.000000 0.000000 -1.053000
v -1.228333 0.000000 0.986667
v -1.405417 0.000000 0.700417
v -1.555000 0.000000 0.416667
v -0.826667 0.000000 1.496667
v -1.033125 0.000000 1.255417
v -0.200625 0.000000 2.017084
v -0.405000 0.000000 1.876667
v -0.615208 0.000000 1.704167
v -1.668271 0.000000 0.159708
v -1.741167 0.000000 -0.039000
v -1.774896 0.000000 -0.159375
v -1.787000 0.000000 -0.234000
v -1.787000 0.000000 -0.234000
v -1.716167 0.000000 -0.262417
v -1.646334 0.000000 -0.293333
v -1.578730 0.000000 -0.328792
v -1.515500 0.000000 -0.369000
v -1.458729 0.000000 -0.413750
v -1.409333 0.000000 -0.463000
v -1.367584 0.000000 -0.516771
v -1.332334 0.000000 -0.575167
v -1.302313 0.000000 -0.638500
v -1.277167 0.000000 -0.707833
v -1.256646 0.000000 -0.784229
v -1.240000 0.000000 -0.868000
v -1.226250 0.000000 -0.958625
v -1.214000 0.000000 -1.053000
v -1.214000 0.000000 -1.053000
v -0.607000 0.000000 -1.053000
v 1.228333 0.200000 0.986667
v 1.405417 0.200000 0.700417
v 1.555000 0.200000 0.416667
v 0.826667 0.200000 1.496667
v 1.033125 0.200000 1.255417
v 0.000000 0.200000 2.140000
v 0.000000 0.200000 2.140000
v 0.200625 0.200000 2.017084
v 0.405000 0.200000 1.876667
v 0.615208 0.200000 1.704167
v 1.668271 0.200000 0.159708
v 1.741167 0.200000 -0.039000
v 1.774896 0.200000 -0.159375
v 1.787000 0.200000 -0.234000
v 1.787000 0.200000 -0.234000
v 1.716167 0.200000 -0.262417
v 1.646334 0.200000 -0.293333
v 1.578730 0.200000 -0.328792
v 1.515500 0.200000 -0.369000
v 1.458729 0.200000 -0.413750
v 1.409333 0.200000 -0.463000
v 1.367167 0.200000 -0.516375
v 1.329000 0.200000 -0.572000
v 1.301896 0.200000 -0.638104
v 1.277167 0.200000 -0.707833
v 1.256646 0.200000 -0.784229
v 1.240000 0.200000 -0.868000
v 1.226250 0.200000 -0.958625
v 1.214000 0.200000 -1.053000
v 1.214000 0.200000 -1.053000
v 0.607000 0.200000 -1.053000
v 0.000000 0.200000 -1.053000
v -1.228333 0.200000 0.986667
v -1.405417 0.200000 0.700417
v -1.555000 0.200000 0.416667
v -0.826667 0.200000 1.496667
v -1.033125 0.200000 1.255417
v -0.200625 0.200000 2.017084
v -0.405000 0.200000 1.876667
v -0.615208 0.200000 1.704167
v -1.668271 0.200000 0.159708
v -1.741167 0.200000 -0.039000
v -1.774896 0.200000 -0.159375
v -1.787000 0.200000 -0.234000
v -1.787000 0.200000 -0.234000
v -1.716167 0.200000 -0.262417
v -1.646333 0.200000 -0.293333
v -1.578729 0.200000 -0.328792
v -1.515500 0.200000 -0.369000
v -1.458730 0.200000 -0.413750
v -1.409334 0.200000 -0.463000
v -1.367584 0.200000 -0.516771
v -1.332333 0.200000 -0.575167
v -1.302313 0.200000 -0.638500
v -1.277167 0.200000 -0.707833
v -1.256646 0.200000 -0.784229
v -1.240000 0.200000 -0.868000
v -1.226250 0.200000 -0.958625
v -1.214000 0.200000 -1.053000
v -1.214000 0.200000 -1.053000
v -0.607000 0.200000 -1.053000
v 0.000000 0.100000 2.140000
v 1.787000 0.100000 -0.234000
v -1.787000 0.100000 -0.234000
v 1.214000 0.100000 -1.053000
v -1.214000 0.100000 -1.053000
vt 0.345801 0.289200
vt 0.386221 0.234957
vt 0.590295 0.487061
vt 0.312282 0.351788
vt 0.426642 0.180713
vt 0.469034 0.141074
vt 0.511426 0.101435
vt 0.550860 0.076399
vt 0.590295 0.051364
vt 0.629729 0.076399
vt 0.669164 0.101435
vt 0.711556 0.141074
vt 0.753948 0.180713
vt 0.794368 0.234957
vt 0.834789 0.289200
vt 0.868308 0.351788
vt 0.901827 0.414376
vt 0.920559 0.466533
vt 0.939290 0.518690
vt 0.940966 0.532668
vt 0.942642 0.546646
vt 0.928643 0.552488
vt 0.914643 0.558329
vt 0.901433 0.566257
vt 0.888222 0.574185
vt 0.877674 0.583990
vt 0.867125 0.593796
vt 0.859731 0.605479
vt 0.852337 0.617162
vt 0.846915 0.630827
vt 0.841493 0.644493
vt 0.837943 0.661183
vt 0.834394 0.677873
vt 0.832028 0.697693
vt 0.829662 0.717512
vt 0.709979 0.717512
vt 0.590295 0.717512
vt 0.470611 0.717512
vt 0.350927 0.717512
vt 0.348561 0.697693
vt 0.346195 0.677873
vt 0.342646 0.661183
vt 0.339097 0.644493
vt 0.333675 0.630827
vt 0.328253 0.617162
vt 0.320859 0.605479
vt 0.313465 0.593796
vt 0.302916 0.583990
vt 0.292367 0.574185
vt 0.279157 0.566257
vt 0.265946 0.558329
vt 0.251947 0.552488
vt 0.237947 0.546646
vt 0.239623 0.532668
vt 0.241299 0.518690
vt 0.260031 0.466533
vt 0.278762 0.414376
vt 0.832488 0.291981
vt 0.867404 0.351701
vt 0.590294 0.487062
vt 0.793998 0.235913
vt 0.896898 0.410899
vt 0.919232 0.464508
vt 0.933605 0.505964
vt 0.940256 0.531077
vt 0.942642 0.546646
vt 0.928676 0.552575
vt 0.914906 0.559025
vt 0.901577 0.566422
vt 0.889109 0.574811
vt 0.877916 0.584147
vt 0.868176 0.594422
vt 0.859862 0.605557
vt 0.852337 0.617162
vt 0.846993 0.630954
vt 0.842117 0.645501
vt 0.838071 0.661439
vt 0.834789 0.678916
vt 0.832078 0.697823
vt 0.829662 0.717512
vt 0.709979 0.717512
vt 0.590295 0.717512
vt 0.470611 0.717512
vt 0.350927 0.717512
vt 0.348512 0.697823
vt 0.345801 0.678916
vt 0.342519 0.661439
vt 0.338473 0.645501
vt 0.333515 0.631036
vt 0.327595 0.617823
vt 0.320645 0.605640
vt 0.312413 0.594422
vt 0.302673 0.584147
vt 0.291480 0.574811
vt 0.279013 0.566422
vt 0.265683 0.559025
vt 0.251914 0.552575
vt 0.237947 0.546646
vt 0.240334 0.531077
vt 0.246985 0.505964
vt 0.261358 0.464508
vt 0.283691 0.410899
vt 0.313185 0.351701
vt 0.348101 0.291981
vt 0.386591 0.235913
vt 0.427299 0.185581
vt 0.468992 0.142291
vt 0.510440 0.106303
vt 0.550737 0.077008
vt 0.590295 0.051364
vt 0.629853 0.077008
vt 0.670150 0.106303
vt 0.711597 0.142291
vt 0.753291 0.185581
vt 0.426641 0.180713
vt 0.427244 0.185176
vt 0.386529 0.235753
vt 0.386221 0.234957
vt 0.427299 0.185581
vt 0.386591 0.235913
vt 0.348101 0.291981
vt 0.347909 0.291750
vt 0.345801 0.289200
vt 0.669164 0.101435
vt 0.670067 0.105897
vt 0.629832 0.076907
vt 0.629729 0.076399
vt 0.670150 0.106303
vt 0.629853 0.077008
vt 0.590295 0.051364
vt 0.590295 0.051364
vt 0.590295 0.051364
vt 0.590295 0.051364
vt 0.590295 0.051364
vt 0.550758 0.076907
vt 0.550860 0.076399
vt 0.590295 0.051364
vt 0.550737 0.077008
vt 0.510440 0.106303
vt 0.510522 0.105897
vt 0.511426 0.101435
vt 0.753948 0.180713
vt 0.753345 0.185176
vt 0.711590 0.142088
vt 0.711556 0.141074
vt 0.753291 0.185581
vt 0.711597 0.142291
vt 0.468999 0.142088
vt 0.469034 0.141074
vt 0.468992 0.142291
vt 0.939290 0.518690
vt 0.934079 0.507024
vt 0.919453 0.464845
vt 0.920559 0.466533
vt 0.933605 0.505964
vt 0.919232 0.464508
vt 0.896898 0.410899
vt 0.897309 0.411189
vt 0.901827 0.414376
vt 0.278762 0.414376
vt 0.283281 0.411189
vt 0.261136 0.464845
vt 0.260031 0.466533
vt 0.283691 0.410899
vt 0.261358 0.464508
vt 0.246985 0.505964
vt 0.246511 0.507024
vt 0.241299 0.518690
vt 0.942642 0.546646
vt 0.942642 0.546646
vt 0.940374 0.531342
vt 0.940966 0.532668
vt 0.942642 0.546646
vt 0.940256 0.531077
vt 0.240216 0.531342
vt 0.239623 0.532668
vt 0.240334 0.531077
vt 0.237947 0.546646
vt 0.237947 0.546646
vt 0.237947 0.546646
vt 0.914643 0.558329
vt 0.914885 0.558967
vt 0.928670 0.552560
vt 0.928643 0.552488
vt 0.914906 0.559025
vt 0.928676 0.552575
vt 0.942642 0.546646
vt 0.942642 0.546646
vt 0.942642 0.546646
vt 0.237947 0.546646
vt 0.237947 0.546646
vt 0.251919 0.552560
vt 0.251947 0.552488
vt 0.237947 0.546646
vt 0.251914 0.552575
vt 0.265683 0.559025
vt 0.265705 0.558967
vt 0.265946 0.558329
vt 0.888222 0.574185
vt 0.889036 0.574759
vt 0.901553 0.566395
vt 0.901433 0.566257
vt 0.889110 0.574811
vt 0.901577 0.566422
vt 0.279037 0.566395
vt 0.279157 0.566257
vt 0.279013 0.566422
vt 0.291480 0.574811
vt 0.291554 0.574759
vt 0.292367 0.574185
vt 0.867125 0.593796
vt 0.868089 0.594370
vt 0.877876 0.584121
vt 0.877674 0.583990
vt 0.868177 0.594422
vt 0.877916 0.584147
vt 0.302714 0.584121
vt 0.302916 0.583990
vt 0.302673 0.584147
vt 0.312413 0.594422
vt 0.312501 0.594370
vt 0.313465 0.593796
vt 0.852337 0.617162
vt 0.852337 0.617162
vt 0.859840 0.605544
vt 0.859731 0.605479
vt 0.852337 0.617162
vt 0.859862 0.605557
vt 0.320680 0.605613
vt 0.320859 0.605479
vt 0.320645 0.605640
vt 0.327595 0.617823
vt 0.327650 0.617768
vt 0.328252 0.617162
vt 0.841492 0.644493
vt 0.842065 0.645417
vt 0.846980 0.630932
vt 0.846915 0.630827
vt 0.842117 0.645501
vt 0.846993 0.630953
vt 0.333541 0.631001
vt 0.333675 0.630827
vt 0.333515 0.631036
vt 0.338473 0.645501
vt 0.338525 0.645417
vt 0.339097 0.644493
vt 0.834394 0.677873
vt 0.834756 0.678829
vt 0.838050 0.661396
vt 0.837943 0.661183
vt 0.834789 0.678916
vt 0.838071 0.661439
vt 0.342540 0.661396
vt 0.342646 0.661183
vt 0.342519 0.661439
vt 0.345801 0.678916
vt 0.345834 0.678829
vt 0.346195 0.677873
vt 0.829662 0.717512
vt 0.829662 0.717512
vt 0.832069 0.697801
vt 0.832028 0.697693
vt 0.829662 0.717512
vt 0.832078 0.697823
vt 0.348520 0.697801
vt 0.348561 0.697693
vt 0.348512 0.697823
vt 0.350927 0.717512
vt 0.350927 0.717512
vt 0.350927 0.717512
vt 0.590295 0.717512
vt 0.590295 0.717512
vt 0.709979 0.717512
vt 0.709979 0.717512
vt 0.590295 0.717512
vt 0.709979 0.717512
vt 0.829662 0.717512
vt 0.829662 0.717512
vt 0.829662 0.717512
vt 0.867555 0.351716
vt 0.868308 0.351788
vt 0.867404 0.351701
vt 0.832488 0.291981
vt 0.832680 0.291750
vt 0.834788 0.289200
vt 0.350927 0.717512
vt 0.350927 0.717512
vt 0.470611 0.717512
vt 0.470611 0.717512
vt 0.350927 0.717512
vt 0.470611 0.717512
vt 0.313035 0.351716
vt 0.312281 0.351788
vt 0.313185 0.351701
vt 0.794060 0.235753
vt 0.794368 0.234957
vt 0.793998 0.235913
vn 0.0000 -1.0000 0.0000
vn 0.0000 1.0000 0.0000
vn -0.7308 0.0000 0.6826
vn -0.7850 0.0000 0.6194
vn -0.8303 0.0000 0.5573
vn 0.6008 0.0000 0.7993
vn 0.5445 0.0000 0.8387
vn 0.5224 0.0000 0.8527
vn -0.5224 0.0000 0.8527
vn -0.5445 0.0000 0.8387
vn -0.6008 0.0000 0.7993
vn 0.7308 0.0000 0.6826
vn 0.6680 0.0000 0.7441
vn -0.6680 0.0000 0.7441
vn 0.9516 0.0000 0.3073
vn 0.9274 0.0000 0.3741
vn 0.9004 0.0000 0.4351
vn -0.9004 0.0000 0.4351
vn -0.9274 0.0000 0.3741
vn -0.9516 0.0000 0.3073
vn 0.9871 0.0000 0.1601
vn 0.9765 0.0000 0.2153
vn -0.9765 0.0000 0.2153
vn -0.9871 0.0000 0.1601
vn 0.4349 0.0000 -0.9005
vn 0.3886 0.0000 -0.9214
vn 0.3723 0.0000 -0.9281
vn -0.3723 0.0000 -0.9281
vn -0.3886 0.0000 -0.9214
vn -0.4349 0.0000 -0.9005
vn 0.5786 0.0000 -0.8156
vn 0.5010 0.0000 -0.8654
vn -0.5010 0.0000 -0.8654
vn -0.5786 0.0000 -0.8156
vn 0.7467 0.0000 -0.6652
vn 0.6637 0.0000 -0.7480
vn -0.6637 0.0000 -0.7480
vn -0.7494 0.0000 -0.6620
vn 0.8798 0.0000 -0.4752
vn 0.8050 0.0000 -0.5932
vn -0.8244 0.0000 -0.5660
vn -0.8810 0.0000 -0.4731
vn 0.9548 0.0000 -0.2970
vn 0.9341 0.0000 -0.3569
vn -0.9229 0.0000 -0.3851
vn -0.9538 0.0000 -0.3005
vn 0.9850 0.0000 -0.1725
vn 0.9738 0.0000 -0.2273
vn -0.9738 0.0000 -0.2273
vn -0.9850 0.0000 -0.1725
vn 0.9917 0.0000 -0.1287
vn 0.9902 0.0000 -0.1393
vn -0.9902 0.0000 -0.1393
vn -0.9917 0.0000 -0.1287
vn 0.0000 0.0000 -1.0000
vn 0.8680 0.0000 0.4965
vn 0.8303 0.0000 0.5573
vn -0.8680 0.0000 0.4965
vn 0.7850 0.0000 0.6194
usemtl Material.001
s 1
f 171/1/1 175/2/1 141/3/1 172/4/1
f 174/5/1 180/6/1 141/3/1 175/2/1
f 179/7/1 178/8/1 141/3/1 180/6/1
f 176/9/1 208/10/1 141/3/1 178/8/1
f 209/11/1 210/12/1 141/3/1 208/10/1
f 206/13/1 207/14/1 141/3/1 210/12/1
f 203/15/1 204/16/1 141/3/1 207/14/1
f 205/17/1 211/18/1 141/3/1 204/16/1
f 212/19/1 213/20/1 141/3/1 211/18/1
f 214/21/1 216/22/1 141/3/1 213/20/1
f 217/23/1 218/24/1 141/3/1 216/22/1
f 219/25/1 220/26/1 141/3/1 218/24/1
f 221/27/1 222/28/1 141/3/1 220/26/1
f 223/29/1 224/30/1 141/3/1 222/28/1
f 225/31/1 226/32/1 141/3/1 224/30/1
f 227/33/1 228/34/1 141/3/1 226/32/1
f 229/35/1 231/36/1 141/3/1 228/34/1
f 202/37/1 201/38/1 141/3/1 231/36/1
f 199/39/1 198/40/1 141/3/1 201/38/1
f 197/41/1 196/42/1 141/3/1 198/40/1
f 195/43/1 194/44/1 141/3/1 196/42/1
f 193/45/1 192/46/1 141/3/1 194/44/1
f 191/47/1 190/48/1 141/3/1 192/46/1
f 189/49/1 188/50/1 141/3/1 190/48/1
f 187/51/1 186/52/1 141/3/1 188/50/1
f 184/53/1 183/54/1 141/3/1 186/52/1
f 182/55/1 181/56/1 141/3/1 183/54/1
f 173/57/1 172/4/1 141/3/1 181/56/1
f 232/58/2 233/59/2 142/60/2 236/61/2
f 234/62/2 242/63/2 142/60/2 233/59/2
f 243/64/2 244/65/2 142/60/2 242/63/2
f 245/66/2 247/67/2 142/60/2 244/65/2
f 248/68/2 249/69/2 142/60/2 247/67/2
f 250/70/2 251/71/2 142/60/2 249/69/2
f 252/72/2 253/73/2 142/60/2 251/71/2
f 254/74/2 255/75/2 142/60/2 253/73/2
f 256/76/2 257/77/2 142/60/2 255/75/2
f 258/78/2 259/79/2 142/60/2 257/77/2
f 260/80/2 262/81/2 142/60/2 259/79/2
f 263/82/2 292/83/2 142/60/2 262/81/2
f 290/84/2 289/85/2 142/60/2 292/83/2
f 288/86/2 287/87/2 142/60/2 289/85/2
f 286/88/2 285/89/2 142/60/2 287/87/2
f 284/90/2 283/91/2 142/60/2 285/89/2
f 282/92/2 281/93/2 142/60/2 283/91/2
f 280/94/2 279/95/2 142/60/2 281/93/2
f 278/96/2 277/97/2 142/60/2 279/95/2
f 275/98/2 274/99/2 142/60/2 277/97/2
f 273/100/2 272/101/2 142/60/2 274/99/2
f 266/102/2 265/103/2 142/60/2 272/101/2
f 264/104/2 268/105/2 142/60/2 265/103/2
f 267/106/2 271/107/2 142/60/2 268/105/2
f 270/108/2 269/109/2 142/60/2 271/107/2
f 237/110/2 239/111/2 142/60/2 269/109/2
f 240/112/2 241/113/2 142/60/2 239/111/2
f 235/114/2 236/61/2 142/60/2 241/113/2
f 17/115/3 114/116/3 143/117/4 72/118/4
f 114/116/3 45/119/3 100/120/4 143/117/4
f 143/117/4 100/120/4 44/121/5 113/122/5
f 72/118/4 143/117/4 113/122/5 16/123/5
f 4/124/6 116/125/6 144/126/7 59/127/7
f 116/125/6 32/128/6 87/129/7 144/126/7
f 144/126/7 87/129/7 238/130/8 293/131/8
f 59/127/7 144/126/7 293/131/8 177/132/8
f 2/133/9 115/134/9 145/135/10 73/136/10
f 115/134/9 30/137/9 101/138/10 145/135/10
f 145/135/10 101/138/10 46/139/11 117/140/11
f 73/136/10 145/135/10 117/140/11 18/141/11
f 3/142/12 118/143/12 146/144/13 60/145/13
f 118/143/12 31/146/12 88/147/13 146/144/13
f 146/144/13 88/147/13 32/128/6 116/125/6
f 60/145/13 146/144/13 116/125/6 4/124/6
f 18/141/11 117/140/11 147/148/14 74/149/14
f 117/140/11 46/139/11 102/150/14 147/148/14
f 147/148/14 102/150/14 45/119/3 114/116/3
f 74/149/14 147/148/14 114/116/3 17/115/3
f 6/151/15 120/152/15 148/153/16 61/154/16
f 120/152/15 34/155/15 89/156/16 148/153/16
f 148/153/16 89/156/16 33/157/17 119/158/17
f 61/154/16 148/153/16 119/158/17 5/159/17
f 19/160/18 122/161/18 149/162/19 75/163/19
f 122/161/18 47/164/18 103/165/19 149/162/19
f 149/162/19 103/165/19 48/166/20 121/167/20
f 75/163/19 149/162/19 121/167/20 20/168/20
f 185/169/21 294/170/21 150/171/22 62/172/22
f 294/170/21 246/173/21 90/174/22 150/171/22
f 150/171/22 90/174/22 34/155/15 120/152/15
f 62/172/22 150/171/22 120/152/15 6/151/15
f 20/168/20 121/167/20 151/175/23 76/176/23
f 121/167/20 48/166/20 104/177/23 151/175/23
f 151/175/23 104/177/23 276/178/24 295/179/24
f 76/176/23 151/175/23 295/179/24 215/180/24
f 8/181/25 125/182/25 152/183/26 63/184/26
f 125/182/25 36/185/25 91/186/26 152/183/26
f 152/183/26 91/186/26 35/187/27 123/188/27
f 63/184/26 152/183/26 123/188/27 7/189/27
f 21/190/28 124/191/28 153/192/29 77/193/29
f 124/191/28 49/194/28 105/195/29 153/192/29
f 153/192/29 105/195/29 50/196/30 126/197/30
f 77/193/29 153/192/29 126/197/30 22/198/30
f 9/199/31 127/200/31 154/201/32 64/202/32
f 127/200/31 37/203/31 92/204/32 154/201/32
f 154/201/32 92/204/32 36/185/25 125/182/25
f 64/202/32 154/201/32 125/182/25 8/181/25
f 22/198/30 126/197/30 155/205/33 78/206/33
f 126/197/30 50/196/30 106/207/33 155/205/33
f 155/205/33 106/207/33 51/208/34 128/209/34
f 78/206/33 155/205/33 128/209/34 23/210/34
f 10/211/35 129/212/35 156/213/36 65/214/36
f 129/212/35 38/215/35 93/216/36 156/213/36
f 156/213/36 93/216/36 37/203/31 127/200/31
f 65/214/36 156/213/36 127/200/31 9/199/31
f 23/210/34 128/209/34 157/217/37 79/218/37
f 128/209/34 51/208/34 107/219/37 157/217/37
f 157/217/37 107/219/37 52/220/38 130/221/38
f 79/218/37 157/217/37 130/221/38 24/222/38
f 11/223/39 131/224/39 158/225/40 66/226/40
f 131/224/39 39/227/39 94/228/40 158/225/40
f 158/225/40 94/228/40 38/215/35 129/212/35
f 66/226/40 158/225/40 129/212/35 10/211/35
f 24/222/38 130/221/38 159/229/41 80/230/41
f 130/221/38 52/220/38 108/231/41 159/229/41
f 159/229/41 108/231/41 53/232/42 132/233/42
f 80/230/41 159/229/41 132/233/42 25/234/42
f 12/235/43 133/236/43 160/237/44 67/238/44
f 133/236/43 40/239/43 95/240/44 160/237/44
f 160/237/44 95/240/44 39/227/39 131/224/39
f 67/238/44 160/237/44 131/224/39 11/223/39
f 25/234/42 132/233/42 161/241/45 81/242/45
f 132/233/42 53/232/42 109/243/45 161/241/45
f 161/241/45 109/243/45 54/244/46 134/245/46
f 81/242/45 161/241/45 134/245/46 26/246/46
f 13/247/47 135/248/47 162/249/48 68/250/48
f 135/248/47 41/251/47 96/252/48 162/249/48
f 162/249/48 96/252/48 40/239/43 133/236/43
f 68/250/48 162/249/48 133/236/43 12/235/43
f 26/246/46 134/245/46 163/253/49 82/254/49
f 134/245/46 54/244/46 110/255/49 163/253/49
f 163/253/49 110/255/49 55/256/50 136/257/50
f 82/254/49 163/253/49 136/257/50 27/258/50
f 200/259/51 296/260/51 164/261/52 69/262/52
f 296/260/51 261/263/51 97/264/52 164/261/52
f 164/261/52 97/264/52 41/251/47 135/248/47
f 69/262/52 164/261/52 135/248/47 13/247/47
f 27/258/50 136/257/50 165/265/53 83/266/53
f 136/257/50 55/256/50 111/267/53 165/265/53
f 165/265/53 111/267/53 291/268/54 297/269/54
f 83/266/53 165/265/53 297/269/54 230/270/54
f 15/271/55 139/272/55 166/273/55 70/274/55
f 139/272/55 43/275/55 98/276/55 166/273/55
f 166/273/55 98/276/55 42/277/55 137/278/55
f 70/274/55 166/273/55 137/278/55 14/279/55
f 5/159/17 119/158/17 167/280/56 57/281/56
f 119/158/17 33/157/17 85/282/56 167/280/56
f 167/280/56 85/282/56 29/283/57 140/284/57
f 57/281/56 167/280/56 140/284/57 1/285/57
f 28/286/55 138/287/55 168/288/55 84/289/55
f 138/287/55 56/290/55 112/291/55 168/288/55
f 168/288/55 112/291/55 43/275/55 139/272/55
f 84/289/55 168/288/55 139/272/55 15/271/55
f 16/123/5 113/122/5 169/292/58 71/293/58
f 113/122/5 44/121/5 99/294/58 169/292/58
f 169/292/58 99/294/58 47/164/18 122/161/18
f 71/293/58 169/292/58 122/161/18 19/160/18
f 1/285/57 140/284/57 170/295/59 58/296/59
f 140/284/57 29/283/57 86/297/59 170/295/59
f 170/295/59 86/297/59 31/146/12 118/143/12
f 58/296/59 170/295/59 118/143/12 3/142/12
